# xmcd
#
# Track frame offsets: 
#        150
#        20883
#        34849
#        49194
#        69165
#        114074
#        138637
#        160794
#        214578
#        241656
#        273767
#        291970
#        315049
#
# Disc length: 4734 seconds
#
# Revision: 2
# Processed by: cddbd v1.5.2PL0 Copyright (c) Steve Scherf et al.
# Submitted via: ExactAudioCopy v1.3
#
DISCID=a9127c0d
DTITLE=Gary Moore - Live from London [2009]
DYEAR=2020
DGENRE=Rock
TTITLE0=Oh, Pretty Woman [Live Islington Academy, London Dec 2, 2009]
TTITLE1=Bad for You Baby [Live Islington Academy, London Dec 2, 2009]
TTITLE2=Down the Line [Live Islington Academy, London Dec 2, 2009]
TTITLE3=Since I Met You Baby [Live Islington Academy, London Dec 2, 20
TTITLE3=09]
TTITLE4=Have You Heard [Live Islington Academy, London Dec 2, 2009]
TTITLE5=All Your Love [Live Islington Academy, London Dec 2, 2009]
TTITLE6=Mojo Boogie [Live Islington Academy, London Dec 2, 2009]
TTITLE7=I Love You More Than You'll Ever Know [Live Islington Academy,
TTITLE7=London Dec 2, 2009]
TTITLE8=Too Tired - Gary's Blues 1 [Live Islington Academy, London Dec
TTITLE8=2, 2009]
TTITLE9=Still Got the Blues [Live Islington Academy, London Dec 2, 200
TTITLE9=9]
TTITLE10=Walking by Myself [Live Islington Academy, London Dec 2, 2009
TTITLE10=]
TTITLE11=The Blues Is Alright [Live Islington Academy, London Dec 2, 2
TTITLE11=009]
TTITLE12=Parisienne Walkways [Live Islington Academy, London Dec 2, 20
TTITLE12=09]
EXTD=
EXTT0=
EXTT1=
EXTT2=
EXTT3=
EXTT4=
EXTT5=
EXTT6=
EXTT7=
EXTT8=
EXTT9=
EXTT10=
EXTT11=
EXTT12=
PLAYORDER=
